{
  "title": "Ashby (2015) WEB-DL 720p [Eng + Rus]",
  "uid": 12495505,
  "size": 3496811683,
  "categoryP": "video",
  "categoryS": "movies",
  "magnet": "?xt=urn:btih:d57bfa197c900adbeb800dc7d124e1ddb130e9d4&amp;dn=Ashby+%282015%29+WEB-DL+720p+%5BEng+%2B+Rus%5D&amp;tr=udp%3A%2F%2Ftracker.leechers-paradise.org%3A6969&amp;tr=udp%3A%2F%2Fzer0day.ch%3A1337&amp;tr=udp%3A%2F%2Fopen.demonii.com%3A1337&amp;tr=udp%3A%2F%2Ftracker.coppersurfer.tk%3A6969&amp;tr=udp%3A%2F%2Fexodus.desync.com%3A6969",
  "seeders": 49,
  "leechers": 2,
  "uploader": "nbdjod",
  "files": 1,
  "time": 1443257006,
  "description": "Ashby (2015) WEB-DL 720p [Eng + Rus]\r\n\r\nAudio  - english, russian\r\n\r\nSubs - english\r\n\r\nMI:\r\nGeneral\r\nUnique ID                                : 219515735803742775371076824495423889883 (0xA5253160E70089ACB0114B01621621DB)\r\nFormat                                   : Matroska\r\nFormat version                           : Version 4 / Version 2\r\nFile size                                : 3.26 GiB\r\nDuration                                 : 1h 42mn\r\nOverall bit rate                         : 4 527 Kbps\r\nEncoded date                             : UTC 2015-09-25 12:27:12\r\nWriting application                      : mkvmerge v6.1.0 ('Old Devil') built on Mar  4 2013 09:10:42\r\nWriting library                          : libebml v1.3.0 + libmatroska v1.4.0\r\n\r\nVideo\r\nID                                       : 1\r\nFormat                                   : AVC\r\nFormat/Info                              : Advanced Video Codec\r\nFormat profile                           :   \r\nFormat settings, CABAC                   : No\r\nFormat settings, ReFrames                : 2 frames\r\nCodec ID                                 : V_MPEG4/ISO/AVC\r\nDuration                                 : 1h 42mn\r\nBit rate                                 : 3 861 Kbps\r\nWidth                                    : 1 280 pixels\r\nHeight                                   : 530 pixels\r\nDisplay aspect ratio                     : 2.40:1\r\nFrame rate mode                          : Constant\r\nFrame rate                               : 23.976 fps\r\nColor space                              : YUV\r\nChroma subsampling                       : 4:2:0\r\nBit depth                                : 8 bits\r\nScan type                                : Progressive\r\nBits/(Pixel*Frame)                       : 0.237\r\nStream size                              : 2.78 GiB (85%)\r\nLanguage                                 : English\r\nDefault                                  : Yes\r\nForced                                   : No\r\nColor range                              : Limited\r\nColor primaries                          : BT.709\r\nTransfer characteristics                 : BT.709\r\nMatrix coefficients                      : BT.709\r\n\r\nAudio #1\r\nID                                       : 2\r\nFormat                                   : AC-3\r\nFormat/Info                              : Audio Coding 3\r\nMode extension                           : CM (complete main)\r\nFormat settings, Endianness              : Big\r\nCodec ID                                 : A_AC3\r\nDuration                                 : 1h 42mn\r\nBit rate mode                            : Constant\r\nBit rate                                 : 192 Kbps\r\nChannel(s)                               : 2 channels\r\nChannel positions                        : Front: L R\r\nSampling rate                            : 48.0 KHz\r\nCompression mode                         : Lossy\r\nStream size                              : 141 MiB (4%)\r\nLanguage                                 : Russian\r\nDefault                                  : Yes\r\nForced                                   : No\r\n\r\nAudio #2\r\nID                                       : 3\r\nFormat                                   : AC-3\r\nFormat/Info                              : Audio Coding 3\r\nMode extension                           : CM (complete main)\r\nFormat settings, Endianness              : Big\r\nCodec ID                                 : A_AC3\r\nDuration                                 : 1h 42mn\r\nBit rate mode                            : Constant\r\nBit rate                                 : 384 Kbps\r\nChannel(s)                               : 6 channels\r\nChannel positions                        : Front: L C R, Side: L R, LFE\r\nSampling rate                            : 48.0 KHz\r\nCompression mode                         : Lossy\r\nStream size                              : 283 MiB (8%)\r\nLanguage                                 : English\r\nDefault                                  : No\r\nForced                                   : No\r\n\r\nText\r\nID                                       : 4\r\nFormat                                   : UTF-8\r\nCodec ID                                 : S_TEXT/UTF8\r\nCodec ID/Info                            : UTF-8 Plain Text\r\nLanguage                                 : English\r\nDefault                                  : No\r\nForced                                   : No\r\n\r\nScreens: \nhttp://i2.imageban.ru/out/2015/09/26/f164b5f83d04621914bad999f4586eca.png \nhttp://i1.imageban.ru/out/2015/09/26/32100fd580bf109b40a0cdbdb5d39834.png \nhttp://i2.imageban.ru/out/2015/09/26/7ac0de0acb07556cdeb4eb0f4b5b8d6f.png \nhttp://i2.imageban.ru/out/2015/09/26/43c28f01f2c0b7d9dd1f675e5062c2fc.png",
  "parsed": {
    "xt": "urn:btih:d57bfa197c900adbeb800dc7d124e1ddb130e9d4",
    "dn": "Ashby (2015) WEB-DL 720p [Eng   Rus]",
    "tr": [
      "udp://exodus.desync.com:6969",
      "udp://open.demonii.com:1337",
      "udp://tracker.coppersurfer.tk:6969",
      "udp://tracker.leechers-paradise.org:6969",
      "udp://zer0day.ch:1337"
    ],
    "infoHash": "d57bfa197c900adbeb800dc7d124e1ddb130e9d4",
    "infoHashBuffer": {
      "type": "Buffer",
      "data": [
        213,
        123,
        250,
        25,
        124,
        144,
        10,
        219,
        235,
        128,
        13,
        199,
        209,
        36,
        225,
        221,
        177,
        48,
        233,
        212
      ]
    },
    "name": "Ashby (2015) WEB-DL 720p [Eng   Rus]",
    "announce": [
      "udp://exodus.desync.com:6969",
      "udp://open.demonii.com:1337",
      "udp://tracker.coppersurfer.tk:6969",
      "udp://tracker.leechers-paradise.org:6969",
      "udp://zer0day.ch:1337"
    ],
    "urlList": []
  },
  "previous": 51,
  "peers": 60,
  "last_updated": "2016-12-25T15:05:41.544Z"
}